<svg xmlns="http://www.w3.org/2000/svg" xmlns:xlink="http://www.w3.org/1999/xlink" width="407" height="276" viewBox="0 0 407 276">
  <defs>
    <filter id="Rectangle_48" x="0" y="0" width="392" height="262" filterUnits="userSpaceOnUse">
      <feOffset dy="3" input="SourceAlpha"/>
      <feGaussianBlur stdDeviation="3" result="blur"/>
      <feFlood flood-opacity="0.161"/>
      <feComposite operator="in" in2="blur"/>
      <feComposite in="SourceGraphic"/>
    </filter>
    <linearGradient id="linear-gradient" x1="-0.065" y1="0.078" x2="1" y2="1" gradientUnits="objectBoundingBox">
      <stop offset="0" stop-color="#54a2c2"/>
      <stop offset="1" stop-color="#44e2c7"/>
    </linearGradient>
    <linearGradient id="linear-gradient-2" x1="0.029" x2="0.988" y2="1" gradientUnits="objectBoundingBox">
      <stop offset="0" stop-color="#57c6fc"/>
      <stop offset="1" stop-color="#6edede"/>
    </linearGradient>
  </defs>
  <g id="Group_85" data-name="Group 85" transform="translate(-797 -188)">
    <g id="Group_82" data-name="Group 82" transform="translate(1)">
      <rect id="Rectangle_48-2" data-name="Rectangle 48" width="390" height="262" rx="15" transform="translate(813 202)" fill="#4b565b" opacity="0.21"/>
      <g transform="matrix(1, 0, 0, 1, 796, 188)" filter="url(#Rectangle_48)">
        <rect id="Rectangle_48-3" data-name="Rectangle 48" width="374" height="244" rx="15" transform="translate(9 6)" fill="#fff"/>
      </g>
      <g id="Group_78" data-name="Group 78" transform="translate(64 86.5)">
        <line id="Line_12" data-name="Line 12" x2="69.143" transform="translate(893.5 276.5)" fill="none" stroke="#17abb5" stroke-linecap="round" stroke-width="5"/>
        <path id="Path_93" data-name="Path 93" d="M0,0H69.143" transform="translate(893.5 288.5)" fill="none" stroke="#17abb5" stroke-linecap="round" stroke-width="5"/>
        <line id="Line_14" data-name="Line 14" x2="69.143" transform="translate(893.5 300.5)" fill="none" stroke="#17abb5" stroke-linecap="round" stroke-width="5"/>
        <line id="Line_15" data-name="Line 15" x2="69.143" transform="translate(893.5 312.5)" fill="none" stroke="#17abb5" stroke-linecap="round" stroke-width="5"/>
        <line id="Line_21" data-name="Line 21" x2="69.143" transform="translate(893.5 312.5)" fill="none" stroke="#17abb5" stroke-linecap="round" stroke-width="5"/>
      </g>
      <circle id="Ellipse_2" data-name="Ellipse 2" cx="33" cy="33" r="33" transform="translate(959 261)" fill="url(#linear-gradient)"/>
      <g id="Group_80" data-name="Group 80">
        <line id="Line_17" data-name="Line 17" y1="11" x2="11" transform="translate(1151.5 193.5)" fill="none" stroke="#fff" stroke-linecap="round" stroke-width="1"/>
        <line id="Line_18" data-name="Line 18" x1="11" y1="11" transform="translate(1151.5 193.5)" fill="none" stroke="#fff" stroke-linecap="round" stroke-width="1"/>
        <path id="Rectangle_49" data-name="Rectangle 49" d="M10,0H364a10,10,0,0,1,10,10V23a0,0,0,0,1,0,0H0a0,0,0,0,1,0,0V10A10,10,0,0,1,10,0Z" transform="translate(805 189)" fill="url(#linear-gradient-2)"/>
      </g>
      <text id="_" data-name="


" transform="translate(829 222)" fill="#fff" font-size="35" font-family="Roboto-Bold, Roboto" font-weight="700"><tspan x="0" y="0"></tspan><tspan x="0" y="42"></tspan><tspan x="0" y="84"></tspan><tspan x="0" y="126"></tspan></text>
      <g id="Group_83" data-name="Group 83" transform="translate(144 86.5)">
        <line id="Line_12-2" data-name="Line 12" x2="69.143" transform="translate(893.5 276.5)" fill="none" stroke="#17abb5" stroke-linecap="round" stroke-width="5"/>
        <path id="Path_93-2" data-name="Path 93" d="M0,0H69.143" transform="translate(893.5 288.5)" fill="none" stroke="#17abb5" stroke-linecap="round" stroke-width="5"/>
        <line id="Line_14-2" data-name="Line 14" x2="69.143" transform="translate(893.5 300.5)" fill="none" stroke="#17abb5" stroke-linecap="round" stroke-width="5"/>
        <line id="Line_15-2" data-name="Line 15" x2="69.143" transform="translate(893.5 312.5)" fill="none" stroke="#17abb5" stroke-linecap="round" stroke-width="5"/>
        <line id="Line_21-2" data-name="Line 21" x2="69.143" transform="translate(893.5 312.5)" fill="none" stroke="#17abb5" stroke-linecap="round" stroke-width="5"/>
      </g>
      <g id="Group_84" data-name="Group 84" transform="translate(-16 86.5)">
        <line id="Line_12-3" data-name="Line 12" x2="69.143" transform="translate(893.5 276.5)" fill="none" stroke="#17abb5" stroke-linecap="round" stroke-width="5"/>
        <path id="Path_93-3" data-name="Path 93" d="M0,0H69.143" transform="translate(893.5 288.5)" fill="none" stroke="#17abb5" stroke-linecap="round" stroke-width="5"/>
        <line id="Line_14-3" data-name="Line 14" x2="69.143" transform="translate(893.5 300.5)" fill="none" stroke="#17abb5" stroke-linecap="round" stroke-width="5"/>
        <line id="Line_15-3" data-name="Line 15" x2="69.143" transform="translate(893.5 312.5)" fill="none" stroke="#17abb5" stroke-linecap="round" stroke-width="5"/>
        <line id="Line_21-3" data-name="Line 21" x2="69.143" transform="translate(893.5 312.5)" fill="none" stroke="#17abb5" stroke-linecap="round" stroke-width="5"/>
      </g>
      <path id="Path_94" data-name="Path 94" d="M0,0H15.2" transform="translate(1042.5 222.5)" fill="none" stroke="#17abb5" stroke-linecap="round" stroke-width="5"/>
      <path id="Path_95" data-name="Path 95" d="M0,0H14.954" transform="translate(1066.5 222.5)" fill="none" stroke="#17abb5" stroke-linecap="round" stroke-width="5"/>
      <path id="Path_96" data-name="Path 96" d="M12.893,0H29" transform="translate(1077.607 222.5)" fill="none" stroke="#17abb5" stroke-linecap="round" stroke-width="5"/>
    </g>
    <circle id="Ellipse_3" data-name="Ellipse 3" cx="5" cy="5" r="5" transform="translate(817 197)" fill="#f97676"/>
    <circle id="Ellipse_4" data-name="Ellipse 4" cx="5" cy="5" r="5" transform="translate(829 197)" fill="#ffe063"/>
    <circle id="Ellipse_5" data-name="Ellipse 5" cx="5" cy="5" r="5" transform="translate(841 197)" fill="#31e2be"/>
    <path id="Path_92" data-name="Path 92" d="M0,0,4.028,3.813,6.784,6.422" transform="translate(1160.5 198.5)" fill="#fff" stroke="#fff" stroke-linecap="round" stroke-width="3"/>
    <line id="Line_20" data-name="Line 20" x1="6.784" y2="6.422" transform="translate(1160.5 198.5)" fill="none" stroke="#fff" stroke-linecap="round" stroke-width="3"/>
    <text id="https:_my.awesome.website" data-name="https://my.awesome.website" transform="translate(865 204)" fill="#fff" font-size="8" font-family="Montserrat-Bold, Montserrat" font-weight="700"><tspan x="0" y="0">https://my.awesome.website</tspan></text>
  </g>
</svg>
